<svg id="svg2" xmlns="http://www.w3.org/2000/svg" viewBox="0 0 33.06499 33.32895"><defs><style>.cls-1,.cls-15{fill:none;}.cls-17,.cls-2{fill:#fff;}.cls-10,.cls-11,.cls-12,.cls-13,.cls-14,.cls-16,.cls-17,.cls-2,.cls-3,.cls-4,.cls-5,.cls-6,.cls-7,.cls-8,.cls-9{fill-rule:evenodd;}.cls-3{fill:#018a00;}.cls-4{fill:#058d00;}.cls-5{fill:#089001;}.cls-6{fill:#0c9301;}.cls-7{fill:#0f9602;}.cls-8{fill:#139902;}.cls-9{fill:#169c03;}.cls-10{fill:#1a9f03;}.cls-11{fill:#1da204;}.cls-12{fill:#21a504;}.cls-13{fill:#24a805;}.cls-14{fill:#28ab05;}.cls-15{stroke:#048e00;}.cls-16{fill:#e6e6e6;}.cls-17{fill-opacity:0.50196;}</style></defs><title>button 4SVG</title><polygon id="polygon178" class="cls-1" points="307.675 214.236 -394.58 214.236 -394.58 -368.255 307.675 -368.255 307.675 214.236"/><g id="g4524"><path id="path4526" class="cls-2" d="M4.6802,28.5384A14.86862,14.86862,0,0,1,.03138,16.66123,17.649,17.649,0,0,1,8.36524,2.74312,22.52821,22.52821,0,0,1,12.2487.81556,12.3756,12.3756,0,0,1,18.96681.19194C24.06917,1.014,27.21563,3.59351,30.107,7.6754a16.17175,16.17175,0,0,1-4.93228,23.15906A16.53134,16.53134,0,0,1,16.41563,33.329,17.20143,17.20143,0,0,1,4.6802,28.5384Zm.45354-.45355A14.306,14.306,0,0,1,.68335,16.66123,16.94875,16.94875,0,0,1,8.67705,3.2817a20.96752,20.96752,0,0,1,3.74173-1.87086,11.96523,11.96523,0,0,1,6.463-.59528c4.87559.82205,7.90866,3.28819,10.715,7.2a15.58536,15.58536,0,0,1-4.7622,22.28032,16.01968,16.01968,0,0,1-8.4189,2.3811A16.53192,16.53192,0,0,1,5.13374,28.08485Z"/><g id="g4528"><path id="path4530" class="cls-3" d="M7.31642,25.87383A11.82333,11.82333,0,0,1,4.17,20.79981,13.24967,13.24967,0,0,1,5.50224,10.70847a14.58212,14.58212,0,0,1,7.71024-6.3496,9.6439,9.6439,0,0,1,5.21575-.51024c3.94016.652,6.4063,2.66457,8.64567,5.811A12.16217,12.16217,0,0,1,29.37,16.66123,12.92635,12.92635,0,0,1,16.444,29.61556,13.31,13.31,0,0,1,7.31642,25.87383Z"/><g id="g4532"><path id="path4534" class="cls-4" d="M7.79831,25.93052A11.14,11.14,0,0,1,4.82193,21.14a12.43825,12.43825,0,0,1,1.24724-9.49606A13.631,13.631,0,0,1,13.4676,5.88958a10.99162,10.99162,0,0,1,5.1874-.51024c3.685.53858,5.92441,2.55118,7.96535,5.52756A11.24705,11.24705,0,0,1,28.57626,17.54,12.094,12.094,0,0,1,16.444,29.41714,12.69937,12.69937,0,0,1,7.79831,25.93052Z"/><path id="path4536" class="cls-5" d="M8.25185,25.95887a10.46507,10.46507,0,0,1-2.8063-4.47874A11.54357,11.54357,0,0,1,6.6361,12.60769c1.474-2.49449,4.05355-4.13859,7.115-5.1874a13.2717,13.2717,0,0,1,5.15906-.51024c3.40157.39685,5.41417,2.4378,7.25669,5.21575a10.08648,10.08648,0,0,1,1.5874,6.29291A11.24853,11.24853,0,0,1,16.444,29.24706,12.03,12.03,0,0,1,8.25185,25.95887Z"/><path id="path4538" class="cls-6" d="M8.73374,26.01556a9.88429,9.88429,0,0,1-2.63622-4.19527A10.744,10.744,0,0,1,7.203,13.54312c1.33229-2.18268,3.85512-3.65669,6.8315-4.56378a16.13135,16.13135,0,0,1,5.10236-.53858c3.11811.25512,4.93228,2.35275,6.57638,4.90394a9.34546,9.34546,0,0,1,1.24724,5.95275A10.47581,10.47581,0,0,1,16.444,29.077,11.47758,11.47758,0,0,1,8.73374,26.01556Z"/><path id="path4540" class="cls-7" d="M9.21563,26.04391a9.00268,9.00268,0,0,1-2.49449-3.88347A10.06934,10.06934,0,0,1,7.77,14.47855c1.19055-1.89921,3.65669-3.14645,6.548-3.9685a22.23381,22.23381,0,0,1,5.074-.53858c2.83464.11338,4.42205,2.23937,5.86771,4.59212a8.60284,8.60284,0,0,1,.87874,5.6126A9.60457,9.60457,0,0,1,16.444,28.87855,10.76506,10.76506,0,0,1,9.21563,26.04391Z"/><path id="path4542" class="cls-8" d="M9.69752,26.1006a8.23815,8.23815,0,0,1-2.32441-3.57165,9.18987,9.18987,0,0,1,.96378-7.115c1.04882-1.5874,3.48661-2.66457,6.23622-3.34489a33.91061,33.91061,0,0,1,5.074-.56692c2.52283-.02835,3.91181,2.15433,5.15905,4.28031a7.71873,7.71873,0,0,1,.51024,5.27244A8.79017,8.79017,0,0,1,16.444,28.70847,10.22358,10.22358,0,0,1,9.69752,26.1006Z"/><path id="path4544" class="cls-9" d="M10.17941,26.129A7.62921,7.62921,0,0,1,7.99673,22.8691c-.68031-2.06929-.05669-5.38582.90709-6.51968.90709-1.30394,3.28819-2.15433,5.95275-2.74961,2.041-.34015,3.94016-.45354,5.01733-.56693,2.26771-.17007,3.42992,2.04095,4.47874,3.96851a7.0463,7.0463,0,0,1,.17008,4.93228,8.06531,8.06531,0,0,1-8.0504,6.60473A9.50128,9.50128,0,0,1,10.17941,26.129Z"/><path id="path4546" class="cls-10" d="M10.63295,26.15729a6.89525,6.89525,0,0,1-1.98425-2.948c-.652-1.89921,0-5.074.82205-5.92441.76535-.99212,3.08976-1.67244,5.66929-2.15433,2.06929-.25512,4.0252-.39685,4.989-.56693,1.9559-.31181,2.948,1.92756,3.77007,3.6567a6.126,6.126,0,0,1-.19842,4.59212A7.28438,7.28438,0,0,1,16.47232,28.34,9.01278,9.01278,0,0,1,10.63295,26.15729Z"/><path id="path4548" class="cls-11" d="M11.11484,26.214a6.37815,6.37815,0,0,1-1.84252-2.66457c-.59527-1.70079.0567-4.7622.76536-5.30079.62362-.737,2.89134-1.19055,5.38582-1.559a38.65021,38.65021,0,0,0,4.93229-.59528c1.70078-.4252,2.46614,1.84252,3.08976,3.37323a5.37423,5.37423,0,0,1-.56693,4.22362,6.61909,6.61909,0,0,1-6.4063,4.47874A8.3446,8.3446,0,0,1,11.11484,26.214Z"/><path id="path4550" class="cls-12" d="M11.59673,26.24233a5.46346,5.46346,0,0,1-1.67244-2.35275c-.53858-1.50236.085-4.4504.70866-4.70551.45355-.4252,2.69292-.70867,5.074-.96378a22.95933,22.95933,0,0,0,4.90394-.59528c1.41732-.56693,1.9559,1.72913,2.3811,3.06142a5.02345,5.02345,0,0,1-.90709,3.88346,6.07956,6.07956,0,0,1-5.6126,3.42992A7.76736,7.76736,0,0,1,11.59673,26.24233Z"/><path id="path4552" class="cls-13" d="M12.07862,26.299a4.72013,4.72013,0,0,1-1.53071-2.0693c-.48189-1.30393.17008-4.13858.652-4.11023.31181-.14173,2.49449-.19843,4.76221-.34016,2.15433-.085,4.337-.25512,4.90393-.62362,1.10552-.70866,1.44567,1.64409,1.67244,2.74961a4.49606,4.49606,0,0,1-1.27559,3.5433,5.74817,5.74817,0,0,1-4.79055,2.35276A6.98505,6.98505,0,0,1,12.07862,26.299Z"/></g><path id="path4554" class="cls-14" d="M12.56051,26.32737a3.86167,3.86167,0,0,1-1.36063-1.75748c-.45354-1.10551.19843-3.82677.56693-3.515.34016.31181,8.47559.48189,9.326-.3685s.96377,1.53071.99212,2.43779c0,2.49449-2.49449,4.50709-5.58425,4.50709A6.634,6.634,0,0,1,12.56051,26.32737Z"/></g><path id="path4556" class="cls-14" d="M8.33689,17.11477C2.866,20.09115,4.65185,4.55729,16.444,4.58564c12.81259.05669,13.43622,14.71181,8.64567,12.52913C21.518,15.499,12.107,15.07383,8.33689,17.11477Z"/><path id="path4558" class="cls-14" d="M16.444,25.93052A12.793,12.793,0,0,1,4.70854,18.33367a9.19046,9.19046,0,0,1-.70866-3.34488A11.83222,11.83222,0,0,0,8.13846,26.4691,12.70886,12.70886,0,0,0,16.444,29.50218,12.84767,12.84767,0,0,0,29.28492,16.66123a12.59382,12.59382,0,0,0-.11338-1.78583A12.80718,12.80718,0,0,1,16.444,25.93052Z"/><g id="g4560"><g id="g4562"><path id="path4564" class="cls-15" d="M15.4802,9.63131h2.09763a.63566.63566,0,0,1,.652.62362v5.1874h5.15906a.63567.63567,0,0,1,.652.62363v2.09763a.64147.64147,0,0,1-.652.652H18.2298v5.15906a.64147.64147,0,0,1-.652.652H15.4802a.63567.63567,0,0,1-.62363-.652V18.81556H9.66917a.63566.63566,0,0,1-.62362-.652V16.066a.62917.62917,0,0,1,.62362-.62363h5.1874v-5.1874A.62916.62916,0,0,1,15.4802,9.63131Z"/><path id="path4566" class="cls-3" d="M15.4802,9.63131h2.09763a.63566.63566,0,0,1,.652.62362v5.1874h5.15906a.63567.63567,0,0,1,.652.62363v2.09763a.64147.64147,0,0,1-.652.652H18.2298v5.15906a.64147.64147,0,0,1-.652.652H15.4802a.63567.63567,0,0,1-.62363-.652V18.81556H9.66917a.63566.63566,0,0,1-.62362-.652V16.066a.62917.62917,0,0,1,.62362-.62363h5.1874v-5.1874A.62916.62916,0,0,1,15.4802,9.63131Z"/></g><g id="g4568"><g id="g4570"><path id="path4572" class="cls-15" d="M15.4802,8.69588h2.09763a.64147.64147,0,0,1,.652.652V14.5069h5.15906a.63566.63566,0,0,1,.652.62362v2.09764a.64148.64148,0,0,1-.652.652H18.2298v5.15905a.64147.64147,0,0,1-.652.652H15.4802a.63567.63567,0,0,1-.62363-.652V17.88013H9.66917a.63567.63567,0,0,1-.62362-.652V15.13052a.62916.62916,0,0,1,.62362-.62362h5.1874V9.34785A.63567.63567,0,0,1,15.4802,8.69588Z"/><path id="path4574" class="cls-16" d="M15.4802,8.69588h2.09763a.64147.64147,0,0,1,.652.652V14.5069h5.15906a.63566.63566,0,0,1,.652.62362v2.09764a.64148.64148,0,0,1-.652.652H18.2298v5.15905a.64147.64147,0,0,1-.652.652H15.4802a.63567.63567,0,0,1-.62363-.652V17.88013H9.66917a.63567.63567,0,0,1-.62362-.652V15.13052a.62916.62916,0,0,1,.62362-.62362h5.1874V9.34785A.63567.63567,0,0,1,15.4802,8.69588Z"/></g><path id="path4576" class="cls-2" d="M15.4802,8.69588h2.09763a.64147.64147,0,0,1,.652.652V14.5069h5.15906a.63566.63566,0,0,1,.652.62362v1.04882H9.04555V15.13052a.62916.62916,0,0,1,.62362-.62362h5.1874V9.34785A.63567.63567,0,0,1,15.4802,8.69588Z"/></g></g><path id="path4578" class="cls-17" d="M4.6802,28.51005A14.87991,14.87991,0,0,1,.05972,16.66123,17.71539,17.71539,0,0,1,8.39358,2.77147,20.40893,20.40893,0,0,1,12.2487.84391,12.3756,12.3756,0,0,1,18.96681.22029c5.074.822,8.22047,3.40157,11.11181,7.45511a16.13526,16.13526,0,0,1-4.93228,23.13071,16.43442,16.43442,0,0,1-8.73071,2.49449A17.2547,17.2547,0,0,1,4.6802,28.51005ZM15.59358,5.12422c2.126,2.32441,1.36063,6.49134-1.72913,9.29764-3.06142,2.83465-7.285,3.2315-9.411.93543-1.474-1.61574-1.87087-7.51181-2.4378,1.30394A13.08665,13.08665,0,0,0,6.09752,27.12107a15.0556,15.0556,0,0,0,10.31811,4.19528,14.48013,14.48013,0,0,0,7.02992-1.78583,2.16622,2.16622,0,0,1-1.53071-.652c-.93543-1.04882-.59527-2.89133.7937-4.16693,1.36063-1.27559,3.25985-1.44566,4.19528-.42519a2.32021,2.32021,0,0,1,.45354,2.15433A14.12242,14.12242,0,0,0,28.49122,8.75257c-2.55118-3.6-5.32913-5.83937-9.80787-6.60472a11.15742,11.15742,0,0,0-5.92441.56692,18.51322,18.51322,0,0,0-2.40945,1.10552A5.34308,5.34308,0,0,1,15.59358,5.12422Z"/><path id="path4580" class="cls-17" d="M4.6802,28.5384A14.86862,14.86862,0,0,1,.03138,16.66123,17.649,17.649,0,0,1,8.36524,2.74312,22.52821,22.52821,0,0,1,12.2487.81556,12.3756,12.3756,0,0,1,18.96681.19194C24.06917,1.014,27.21563,3.59351,30.107,7.6754a16.17175,16.17175,0,0,1-4.93228,23.15906A16.53134,16.53134,0,0,1,16.41563,33.329,17.20143,17.20143,0,0,1,4.6802,28.5384Zm3.99685-4.0252a9.8257,9.8257,0,0,1-3.06142-7.852,11.69186,11.69186,0,0,1,5.52756-9.2126A13.408,13.408,0,0,1,13.69437,6.173a8.2424,8.2424,0,0,1,4.45039-.42519c3.37323.56692,5.47087,2.26771,7.37008,4.96062A10.69627,10.69627,0,0,1,22.255,26.04391,11.05152,11.05152,0,0,1,16.444,27.688,11.38223,11.38223,0,0,1,8.67705,24.5132Z"/><path id="path4582" class="cls-2" d="M15.73532,2.96989c.7937,1.389-.22678,3.48662-2.29607,4.67717C11.39831,8.83761,9.0739,8.69588,8.25185,7.3069c-.7937-1.389.22677-3.48661,2.26772-4.67717C12.58886,1.41084,14.91327,1.58092,15.73532,2.96989Z"/><path id="path4584" class="cls-2" d="M7.51484,7.6754c.62362.70867.31181,2.0693-.737,3.00473-1.07716.96378-2.43779,1.1622-3.08976.45354s-.31181-2.04094.737-3.00472S6.86287,6.96674,7.51484,7.6754Z"/><path id="path4586" class="cls-2" d="M23.44555,28.425c.4252.62362.02835,1.67244-.93543,2.32441-.93543.652-2.06929.652-2.49449.02835-.4252-.652-.02835-1.70079.93543-2.32441C21.8865,27.80139,23.02035,27.773,23.44555,28.425Z"/></g></svg>